<?xml version="1.0" standalone="no"?>
<!DOCTYPE svg PUBLIC "-//W3C//DTD SVG 20010904//EN"
 "http://www.w3.org/TR/2001/REC-SVG-20010904/DTD/svg10.dtd">
<svg version="1.0" xmlns="http://www.w3.org/2000/svg"
 width="2560.000000pt" height="1440.000000pt" viewBox="0 0 2560.000000 1440.000000"
 preserveAspectRatio="xMidYMid meet">
<metadata>
Created by potrace 1.16, written by Peter Selinger 2001-2019
</metadata>
<g transform="translate(0.000000,1440.000000) scale(0.100000,-0.100000)"
fill="#000000" stroke="none">
<path d="M0 10243 l0 -4158 88 86 c71 70 298 276 388 352 20 17 21 16 48 -38
l27 -56 -67 -72 c-37 -40 -79 -89 -95 -110 -15 -21 -61 -74 -103 -118 -105
-111 -189 -216 -241 -301 l-45 -72 0 -554 0 -553 36 -57 c61 -96 135 -181 214
-246 87 -72 255 -187 279 -191 18 -2 42 86 101 365 37 176 45 202 128 405 108
267 242 531 323 633 10 13 24 50 30 83 6 32 13 59 16 59 2 0 44 -33 93 -74 49
-41 117 -93 150 -116 50 -34 61 -46 56 -63 -18 -78 -58 -303 -71 -408 -56
-443 -8 -1033 119 -1476 64 -220 177 -496 260 -630 23 -37 64 -108 91 -158
122 -225 261 -402 418 -534 43 -36 74 -67 68 -69 -24 -8 -308 164 -416 251
-375 306 -618 714 -772 1297 -45 172 -50 199 -68 350 -23 196 -19 434 11 595
8 48 -77 -89 -120 -190 -57 -137 -152 -439 -185 -592 -100 -459 -102 -917 -5
-1311 27 -109 121 -388 150 -444 9 -18 25 -44 35 -58 10 -14 43 -86 73 -161
219 -551 571 -967 966 -1142 l65 -28 -68 6 c-89 8 -260 64 -367 121 -137 74
-236 150 -376 289 -365 364 -607 851 -704 1420 -60 352 -70 888 -21 1205 5 36
13 106 16 155 4 50 9 97 11 106 3 12 -16 29 -68 60 -97 58 -295 198 -385 271
-40 32 -75 58 -78 58 -3 0 -5 -997 -5 -2215 l0 -2215 1591 0 c1253 0 1590 3
1586 13 -2 6 3 18 10 25 10 11 11 17 2 28 -10 13 -6 18 14 15 6 -1 10 13 9 30
-1 3 14 22 33 43 27 31 39 37 60 34 17 -4 25 -1 25 9 0 8 4 12 9 9 13 -8 32
19 36 50 1 15 10 33 19 39 8 7 13 15 9 18 -9 9 29 8 43 -1 6 -4 13 -14 16 -22
3 -8 54 83 117 208 61 122 113 222 116 222 3 0 1 -9 -5 -21 -10 -17 -9 -20 7
-18 23 3 82 -31 88 -53 3 -9 12 -19 20 -22 10 -3 12 0 9 12 -5 14 -3 13 10 -2
9 -11 16 -25 16 -31 0 -7 7 -12 16 -12 18 0 38 43 28 59 -4 6 -2 8 3 5 6 -4
14 0 17 9 8 21 8 24 -5 24 -5 0 -7 -4 -4 -10 8 -13 -15 -13 -35 0 -13 8 -11
11 7 16 13 4 20 10 17 16 -3 5 -11 5 -19 -2 -9 -8 -15 -8 -20 0 -6 9 155 334
162 326 2 -2 -21 -59 -50 -127 -57 -130 -77 -186 -57 -159 9 13 12 13 23 -2
11 -14 25 7 108 168 52 101 95 178 97 171 2 -8 -31 -89 -73 -181 -41 -93 -75
-170 -75 -172 0 -2 18 -2 39 0 29 3 44 -1 56 -14 15 -16 14 -22 -9 -71 -15
-29 -26 -54 -26 -56 0 -2 19 7 43 21 48 29 344 183 367 192 8 3 74 32 145 65
820 369 1725 653 2785 875 327 68 778 154 811 154 12 0 40 133 49 234 15 159
-3 325 -50 461 -47 136 -66 174 -161 316 -153 230 -392 502 -590 671 -63 53
-127 109 -144 124 -30 26 -30 26 10 -2 47 -33 143 -112 188 -154 17 -16 35
-26 41 -23 9 6 43 12 96 16 14 2 28 -2 32 -8 5 -6 8 -6 8 2 0 9 10 11 30 6 25
-5 29 -3 24 11 -7 19 -6 19 -38 6 -18 -7 -26 -6 -26 1 0 8 -4 8 -14 0 -9 -8
-16 -8 -20 -2 -4 5 1 14 10 19 11 6 15 16 11 27 -12 31 187 -89 306 -184 51
-40 65 -57 55 -64 -10 -6 -9 -7 4 -4 21 7 52 -16 153 -113 74 -71 127 -109
109 -77 -20 35 -90 112 -179 198 -108 105 -144 134 -307 253 -60 43 -108 80
-108 82 0 6 11 -1 79 -48 30 -21 57 -38 61 -38 4 0 17 9 29 19 l22 19 -43 31
c-23 17 -37 31 -31 31 48 0 318 -284 449 -471 187 -267 236 -358 267 -489 37
-154 42 -190 41 -340 -1 -176 -14 -251 -68 -385 l-35 -86 27 5 c15 3 45 8 67
12 30 5 50 18 78 51 21 23 44 43 50 42 8 0 8 -2 -1 -6 -7 -2 -17 -13 -22 -23
-8 -15 -6 -17 10 -13 33 9 22 -6 -12 -17 -33 -10 -33 -10 7 -5 22 3 54 5 70 5
17 0 37 4 45 10 12 8 12 11 0 27 -8 11 -4 7 10 -8 24 -26 26 -26 92 -16 l67
10 -35 67 c-44 84 -69 108 -136 131 -52 17 -53 18 -60 66 -14 107 -9 181 18
246 40 96 129 276 167 339 l34 57 51 -54 c28 -31 75 -102 107 -163 73 -136
106 -186 129 -190 22 -5 70 40 86 79 12 28 12 28 55 -60 49 -100 66 -116 106
-96 42 22 60 74 62 178 1 109 -14 166 -84 318 -27 58 -49 111 -49 117 0 8 18
3 48 -12 82 -41 202 -78 231 -71 49 12 89 54 125 129 l35 74 83 22 c122 32
161 52 188 95 19 31 22 46 18 99 -3 34 -13 77 -23 96 -15 29 -35 89 -82 240
-4 14 5 15 69 7 40 -4 92 -12 116 -18 24 -5 85 -15 137 -21 l95 -12 0 -96 c0
-231 -51 -589 -159 -1130 -33 -162 -58 -296 -57 -297 1 -2 49 2 107 7 274 25
849 60 1272 76 l177 6 0 -39 0 -40 -192 -7 c-368 -13 -1252 -67 -1350 -82 -36
-5 -37 -7 -48 -62 -6 -31 -13 -66 -16 -77 -2 -11 -44 -49 -91 -85 -182 -136
-332 -273 -559 -510 -65 -69 -140 -145 -166 -170 l-48 -44 -47 23 c-54 25
-250 155 -302 199 -33 28 -33 29 -18 58 44 85 64 454 28 513 -7 11 -22 12 -73
5 l-63 -9 2 -45 c2 -42 1 -43 -6 -12 -5 18 -11 35 -14 38 -9 9 -187 -18 -187
-28 0 -5 5 -6 10 -3 5 3 10 2 10 -3 0 -20 -28 -20 -33 -1 -3 10 -11 19 -17 19
-8 0 -10 -8 -6 -20 3 -11 8 -30 11 -42 4 -19 4 -19 -3 -5 -6 16 -10 16 -19 5
-6 -7 -13 -22 -17 -33 -3 -11 -3 4 0 34 l5 53 -68 -7 c-37 -4 -73 -11 -79 -16
-6 -5 -34 -46 -61 -91 -97 -157 -249 -319 -393 -417 -80 -55 -89 -58 -54 -20
56 60 189 300 243 437 l21 54 -42 -7 c-24 -4 -97 -17 -163 -30 -66 -13 -205
-40 -310 -60 -1026 -197 -2063 -509 -2900 -872 -48 -21 -297 -144 -365 -181
-8 -5 -49 -25 -90 -46 -41 -21 -134 -72 -207 -114 l-132 -77 -30 -65 c-33 -73
-71 -167 -71 -178 0 -4 10 7 21 23 18 26 20 27 16 7 -4 -19 -2 -22 11 -17 9 3
13 3 9 -1 -4 -4 -1 -17 6 -28 15 -24 21 -96 8 -96 -5 0 -8 -11 -7 -25 l1 -25
159 0 c121 0 177 5 240 19 145 34 145 34 142 15 -3 -21 -21 -30 -31 -15 -3 6
-11 11 -17 11 -6 0 -5 -6 3 -16 19 -23 383 -15 449 11 31 11 60 15 93 11 27
-3 47 -1 47 4 0 6 -5 10 -11 10 -6 0 -9 9 -6 20 3 10 0 21 -7 23 -6 2 -1 9 11
15 16 9 24 9 29 0 4 -7 3 -8 -4 -4 -16 9 -15 -7 0 -22 18 -18 28 -15 21 6 -5
13 2 10 29 -10 43 -33 44 -33 52 -12 5 12 2 15 -11 9 -14 -5 -13 -1 4 14 12
12 32 21 45 22 l23 0 -23 10 c-13 5 -29 6 -34 2 -7 -4 -8 -1 -4 6 5 7 14 10
22 7 9 -3 14 2 14 14 0 11 -4 20 -10 20 -5 0 -10 -4 -10 -10 0 -5 -4 -10 -10
-10 -5 0 -10 9 -10 20 0 11 5 20 10 20 6 0 5 6 -2 14 -8 8 -17 10 -23 6 -6 -5
-16 -5 -23 -1 -8 5 10 14 48 26 48 15 64 16 82 6 13 -6 15 -9 6 -7 -22 7 -24
-19 -3 -28 8 -3 15 -11 15 -17 0 -7 8 -21 18 -32 9 -11 11 -17 4 -13 -14 8
-12 -28 3 -41 4 -5 5 -3 2 3 -4 7 0 15 8 18 12 4 13 2 6 -13 -6 -10 -8 -21 -5
-24 3 -3 -5 -3 -18 -1 -12 3 19 -15 71 -40 88 -43 125 -58 91 -36 -12 8 -11
10 6 10 11 0 26 -6 34 -13 12 -10 12 -9 2 4 -6 9 -9 19 -5 22 3 4 1 7 -5 7 -7
0 -12 6 -12 14 0 9 8 12 25 8 21 -4 23 -7 13 -19 -9 -11 40 12 70 33 2 1 -35
21 -82 45 -47 24 -84 45 -82 46 1 2 45 -17 97 -41 52 -24 112 -52 134 -61 l40
-17 -80 -23 -80 -23 70 -1 c68 -1 78 2 270 89 288 130 282 127 265 134 -79 30
-140 55 -120 50 72 -17 81 -17 74 2 -6 17 -5 17 9 -1 13 -15 16 -16 17 -5 0
11 2 12 8 3 6 -9 12 -8 25 7 15 18 15 20 -1 29 -26 15 -14 13 72 -13 l79 -25
161 58 c399 144 751 249 1231 370 521 131 1018 228 1615 316 96 14 204 30 240
35 117 18 450 58 665 81 l210 22 65 47 c286 207 635 382 917 460 91 25 117 25
42 0 -31 -10 -76 -27 -101 -39 -24 -11 -68 -29 -97 -41 -74 -29 -274 -130
-351 -177 -74 -45 -75 -49 -37 -135 19 -41 23 -58 14 -62 -12 -6 97 -2 388 14
417 23 387 23 383 3 -3 -16 -34 -20 -343 -40 -187 -12 -358 -25 -381 -28 l-41
-6 21 -70 20 -70 96 2 c68 1 126 9 207 30 141 38 263 59 332 59 50 0 53 -1 49
-23 -3 -12 -28 -121 -56 -242 -66 -288 -112 -603 -112 -782 l0 -53 1170 0
1169 0 11 43 c6 23 22 80 34 127 13 47 26 101 29 120 6 35 11 58 23 115 4 17
8 39 10 50 1 11 9 52 17 90 8 39 18 104 22 145 3 41 19 138 35 215 16 77 39
194 51 260 19 104 24 116 31 90 20 -65 11 -175 -33 -435 -61 -355 -112 -588
-175 -802 -3 -10 -1 -18 5 -18 27 0 151 537 196 855 14 99 27 186 30 193 7 19
35 347 35 410 0 51 1 53 23 46 76 -23 318 -161 426 -242 30 -22 32 -26 16 -32
-20 -7 94 -25 230 -36 73 -6 105 -16 105 -33 0 -3 -53 -3 -117 1 -148 8 -321
8 -273 -1 38 -7 53 -36 29 -55 -16 -13 -24 -40 -9 -31 5 3 18 1 27 -4 11 -6
13 -11 6 -12 -7 -1 -17 -3 -23 -4 -5 -1 -23 -3 -40 -4 -16 0 -30 -5 -30 -10 0
-4 46 -11 103 -15 113 -7 385 -33 432 -41 25 -4 42 -21 85 -82 30 -42 85 -117
122 -167 l66 -91 -41 -3 c-23 -1 -141 6 -262 17 -121 10 -221 18 -222 17 -1
-1 19 -18 45 -38 26 -19 79 -64 117 -100 69 -64 71 -65 140 -72 39 -3 134 -14
212 -23 l143 -17 26 -39 c14 -21 24 -41 21 -43 -2 -2 -91 5 -198 16 -107 11
-195 20 -196 20 -2 0 15 -24 38 -52 56 -74 130 -226 136 -282 l6 -46 51 0 51
0 93 115 c85 106 112 127 112 90 0 -7 -31 -51 -68 -97 -37 -46 -71 -89 -76
-95 -6 -10 219 -13 1109 -13 989 0 1116 2 1111 15 -7 19 5 19 74 0 42 -11 118
-15 325 -14 263 0 271 0 315 23 l45 24 -75 22 c-41 12 -106 31 -145 42 -38 11
-200 53 -360 94 -280 70 -290 74 -302 101 -67 159 -142 347 -140 349 3 3 333
-66 532 -111 199 -45 661 -169 860 -230 83 -26 160 -47 171 -47 12 0 74 16
137 36 109 34 116 35 151 21 40 -17 74 -19 36 -3 -68 30 -98 41 -260 92 -455
144 -1075 302 -1570 402 -117 23 -159 38 -146 52 5 4 524 -100 690 -139 414
-96 840 -212 1154 -314 142 -46 144 -46 179 -30 19 9 37 14 40 11 4 -3 1 -6
-5 -6 -6 0 -9 -6 -6 -14 4 -11 -1 -13 -18 -10 -13 3 0 -5 27 -16 28 -11 59
-25 70 -30 11 -5 92 -36 180 -68 88 -33 178 -67 199 -76 l40 -16 103 46 c63
28 113 44 126 41 12 -3 126 -35 252 -72 505 -146 641 -175 827 -175 123 0 137
2 131 16 -5 15 -3 15 20 -1 16 -10 27 -13 27 -6 0 6 7 11 15 11 8 0 15 -4 15
-10 0 -5 23 -10 51 -10 43 0 50 3 45 16 -12 32 -18 69 -8 56 7 -11 10 -10 16
3 5 13 13 16 34 11 24 -6 25 -5 10 7 -11 9 -15 21 -11 35 3 13 -2 28 -12 39
-17 16 -16 17 1 24 20 7 12 9 -78 25 -21 3 -38 11 -38 17 0 6 29 8 85 3 l85
-6 0 35 c0 25 -4 33 -14 29 -14 -5 -15 24 -1 58 5 12 2 20 -9 24 -9 3 -15 16
-14 30 3 30 11 30 32 1 12 -16 16 -17 12 -4 -5 15 -2 16 14 7 16 -9 22 -7 27
7 4 10 11 21 16 24 5 3 -17 21 -49 39 -95 53 -183 100 -189 100 -11 0 33 -70
56 -89 22 -17 22 -21 10 -45 -8 -14 -20 -26 -26 -26 -19 0 -37 26 -33 48 2 10
-10 44 -26 76 -28 54 -34 60 -120 104 -117 59 -247 118 -366 167 -52 21 -117
48 -145 60 -80 36 -353 138 -570 213 -641 223 -1428 431 -2255 596 -284 56
-717 135 -875 158 l-90 14 -18 38 c-10 21 -17 39 -15 41 9 8 772 -121 1098
-185 442 -88 951 -205 1170 -270 19 -5 49 -10 66 -10 75 0 308 89 424 162 19
12 32 18 28 13 -4 -4 -3 -14 3 -22 9 -9 8 -13 0 -13 -6 0 -11 5 -11 10 0 16
-14 12 -38 -10 -30 -28 -28 -37 8 -32 17 2 27 9 23 15 -3 6 -1 7 6 3 6 -4 41
6 76 23 91 42 81 29 -13 -18 -128 -64 -268 -107 -447 -137 l-40 -6 70 -19
c601 -164 1289 -408 1860 -661 97 -43 457 -222 589 -293 61 -32 107 -52 104
-44 -4 10 1 15 13 15 11 0 19 -4 19 -9 0 -4 4 -6 9 -3 16 10 79 -18 123 -54
23 -19 48 -34 55 -32 7 2 13 -2 13 -8 0 -14 27 -13 32 2 3 7 9 8 19 2 8 -5 16
-9 19 -9 19 -1 69 -29 64 -36 -3 -5 2 -9 10 -9 8 0 31 -15 51 -34 57 -54 104
-88 114 -81 6 3 14 -3 20 -12 6 -10 11 -14 11 -9 0 4 10 2 23 -7 12 -8 37 -18
54 -21 17 -4 37 -13 43 -21 6 -8 17 -12 24 -9 15 6 29 -23 19 -38 -3 -6 -2 -8
4 -5 11 7 44 -28 35 -38 -4 -3 1 -3 10 0 9 4 18 0 21 -9 6 -14 157 -16 1502
-16 l1495 0 0 813 0 812 -59 -122 c-130 -268 -305 -465 -491 -552 -89 -43
-109 -39 -30 5 223 124 405 349 500 619 33 94 74 254 67 261 -2 2 -31 -28 -65
-68 -102 -122 -252 -252 -414 -359 -267 -175 -665 -312 -841 -289 l-38 5 123
100 c141 115 366 336 454 445 204 252 337 492 499 894 133 333 187 514 221
736 29 193 2 581 -51 731 -8 23 -13 44 -11 46 4 5 82 -119 115 -182 l20 -40 1
968 0 967 -55 -45 c-53 -43 -160 -115 -171 -115 -3 0 6 15 20 33 83 109 145
382 132 584 -18 293 -127 559 -331 810 -15 18 -24 33 -20 33 17 0 278 -140
347 -186 43 -28 78 -47 78 -41 0 7 -48 59 -107 118 -124 122 -231 196 -431
297 -270 137 -445 182 -922 233 -323 35 -647 27 -1050 -26 -157 -21 -401 -65
-423 -77 -13 -6 -60 -1 -150 16 -188 36 -451 78 -702 111 -62 8 -84 13 -58 14
24 0 107 8 185 16 625 65 984 91 1388 100 118 3 292 8 385 12 251 9 541 -24
770 -86 39 -11 95 -26 125 -34 323 -90 715 -300 922 -496 l68 -63 0 3701 0
3701 -5726 0 -5727 0 153 -152 c84 -84 165 -175 182 -203 16 -27 34 -59 41
-69 67 -108 78 -128 68 -122 -6 4 -11 1 -11 -8 0 -8 6 -16 13 -19 8 -3 9 -8 2
-13 -5 -5 -9 -7 -8 -5 2 2 -2 10 -8 17 -6 8 -8 22 -5 31 5 15 4 15 -9 -1 -8
-11 -16 -18 -18 -15 -1 2 -9 17 -17 33 -8 15 -24 32 -35 36 -11 4 -19 10 -17
14 6 16 1 37 -8 31 -21 -13 -98 84 -84 106 4 7 3 9 -3 6 -15 -9 -57 39 -50 57
4 10 -2 17 -16 22 -12 4 -34 20 -50 35 -15 16 -30 29 -33 29 -3 0 -46 43 -96
95 l-91 95 -7023 0 -7024 0 0 -4157z m756 4131 c201 -21 375 -49 512 -85 62
-16 121 -29 131 -29 18 0 38 -54 56 -150 4 -19 9 -43 11 -52 3 -10 1 -18 -5
-18 -5 0 -15 26 -21 58 -13 67 -30 124 -39 134 -27 30 -454 108 -673 123 -48
3 -95 8 -103 11 -8 4 -15 2 -15 -3 0 -15 83 -171 142 -268 30 -49 99 -163 153
-252 l99 -162 98 -7 c54 -3 101 -11 104 -16 6 -9 -172 -10 -206 -1 -9 3 -36
39 -60 81 -24 42 -84 142 -134 222 -83 134 -226 400 -226 421 0 12 2 12 176
-7z m13184 -54 c3 -3 23 -17 45 -31 43 -29 130 -110 185 -174 72 -83 120 -144
120 -151 0 -4 11 -17 24 -29 13 -12 27 -31 30 -43 4 -11 20 -37 36 -57 44 -56
230 -404 230 -431 0 -9 -23 18 -94 111 -68 90 -295 319 -305 309 -3 -3 -1 -8
5 -12 13 -9 94 -139 94 -151 0 -4 6 -14 13 -20 24 -19 144 -278 134 -287 -2
-3 -33 41 -68 96 -35 55 -67 100 -71 100 -5 0 -8 6 -8 14 0 7 -11 25 -25 40
-14 15 -25 32 -25 39 0 7 -12 23 -25 36 -14 12 -22 27 -19 32 3 5 -2 6 -10 3
-10 -4 -16 -1 -16 8 0 8 -20 38 -45 67 -25 29 -45 61 -45 72 0 10 -7 19 -15
19 -8 0 -15 3 -15 8 0 4 -20 29 -45 57 -25 27 -48 57 -51 67 -3 10 -12 18 -20
18 -8 0 -12 5 -9 10 3 6 2 10 -4 10 -12 0 -143 152 -136 158 3 3 49 -24 102
-60 54 -36 108 -70 119 -76 12 -6 54 -38 95 -71 40 -33 75 -58 77 -56 4 4 -39
65 -83 118 -6 7 -48 64 -95 127 -47 63 -87 117 -90 120 -3 3 -12 14 -20 25
-14 19 -14 19 5 5 11 -8 22 -17 25 -20z m-11061 -109 c9 -6 10 -11 2 -15 -6
-4 -16 -4 -23 0 -6 4 -8 3 -4 -4 7 -12 -67 -59 -191 -121 -100 -50 -111 -50
-343 -12 -364 60 -498 75 -524 61 -31 -16 -53 -8 -68 24 -8 20 -8 29 2 41 18
22 67 19 75 -5 7 -22 -3 -20 270 -60 110 -16 251 -39 314 -50 62 -11 126 -20
142 -20 29 0 213 91 284 141 45 32 45 32 64 20z m10616 -220 c66 -119 175
-341 175 -358 0 -7 4 -13 9 -13 4 0 7 10 5 23 -2 12 -17 105 -34 206 -17 101
-29 186 -27 188 7 6 77 -221 98 -317 14 -67 22 -149 26 -275 5 -160 4 -182
-11 -194 -12 -10 -13 -17 -5 -27 7 -9 8 -22 2 -41 -9 -27 -10 -25 -17 22 -14
93 -47 210 -83 293 -20 45 -37 81 -39 79 -3 -2 3 -39 11 -83 9 -43 18 -126 20
-184 l5 -105 -19 55 c-30 88 -108 378 -125 465 -13 65 -56 344 -56 361 0 15
15 -7 65 -95z m-671 -173 c-4 -185 -4 -192 12 -158 100 212 125 262 129 258 3
-2 -22 -81 -54 -174 -32 -93 -80 -254 -107 -359 -55 -215 -56 -215 -70 9 l-7
119 -47 -134 c-80 -229 -90 -242 -65 -84 28 174 92 399 186 653 13 34 24 62
25 62 1 0 0 -87 -2 -192z m-385 -7 c-6 -16 -27 -62 -48 -103 -210 -408 -214
-417 -191 -411 17 4 20 1 18 -23 -1 -16 -6 -31 -10 -34 -4 -3 -9 -27 -12 -54
-3 -34 0 -49 10 -53 8 -3 11 -10 7 -16 -3 -6 -1 -7 6 -3 6 4 9 12 5 17 -14 23
143 370 258 572 76 131 78 116 5 -30 -36 -70 -88 -180 -117 -243 -29 -63 -70
-152 -92 -198 -22 -45 -38 -88 -36 -94 3 -7 21 14 42 45 21 31 40 57 43 57 4
0 2 -5 -32 -60 -46 -75 -227 -425 -326 -630 -69 -143 -124 -277 -165 -400 -35
-102 -63 -176 -63 -164 -2 40 30 239 39 248 4 4 6 15 3 22 -19 49 123 562 239
867 18 47 34 74 38 67 8 -13 42 45 140 240 34 69 80 157 103 195 45 79 135
215 142 215 2 0 -1 -13 -6 -29z m-11189 -411 c6 -11 8 -30 5 -42 -4 -17 13
-55 66 -143 295 -497 382 -653 374 -674 -5 -12 -9 -9 -20 15 -7 17 -40 76 -72
130 -33 54 -120 200 -193 324 -183 310 -182 308 -207 315 -18 4 -23 12 -23 38
0 54 47 79 70 37z m11289 -240 c6 0 8 -7 5 -15 -4 -8 -10 -15 -16 -15 -5 0 -6
5 -3 10 3 6 1 10 -4 10 -14 0 -14 -17 0 -26 6 -3 16 -1 22 5 13 13 31 15 23 2
-3 -5 9 -14 26 -20 24 -8 34 -9 36 -1 3 7 11 5 23 -6 13 -12 19 -13 19 -4 0
10 3 10 15 0 19 -16 22 -13 45 46 25 63 25 40 1 -34 -29 -89 -61 -229 -61
-265 0 -14 -7 -28 -17 -31 -12 -5 -14 -9 -6 -14 9 -6 7 -39 -6 -132 -10 -69
-22 -151 -26 -183 -6 -57 -6 -58 12 -40 10 10 31 35 46 55 33 43 119 83 195
92 l54 6 -21 -28 c-11 -16 -54 -46 -95 -68 -74 -37 -96 -59 -36 -34 46 19 46
6 0 -31 -60 -50 -173 -160 -168 -164 2 -2 33 21 67 51 35 31 75 63 88 71 44
29 37 3 -13 -48 l-49 -51 70 38 c39 21 83 47 99 58 26 18 29 18 23 2 -6 -15
-1 -17 41 -15 26 1 64 -4 84 -11 35 -13 39 -12 53 6 13 17 14 17 15 2 0 -14 8
-18 34 -18 28 0 35 4 38 23 2 12 10 22 18 22 8 0 16 -10 18 -22 3 -19 10 -23
41 -23 20 0 42 5 49 12 9 9 12 8 12 -5 0 -9 6 -17 13 -17 32 0 87 -22 87 -35
0 -20 -370 -10 -414 11 -33 16 -86 19 -86 4 0 -5 -17 -18 -37 -29 l-38 -20 63
-1 c36 0 62 -4 62 -10 0 -7 6 -7 19 -1 10 6 77 10 149 10 106 0 137 -4 166
-19 20 -10 36 -14 36 -9 0 10 67 3 113 -11 22 -7 32 -5 47 10 11 11 25 20 30
20 6 0 10 5 10 10 0 6 -11 10 -24 10 -13 0 -26 7 -30 15 -3 8 -17 15 -31 15
-16 0 -25 6 -25 15 0 15 10 19 43 16 10 -2 17 5 17 14 0 12 5 15 23 9 12 -4
37 -10 55 -15 19 -4 36 -9 38 -12 8 -7 -8 -37 -20 -38 -6 -1 -1 -4 11 -7 21
-7 20 -9 -28 -127 -64 -155 -131 -288 -324 -640 -55 -99 -37 -78 40 50 37 61
93 144 124 185 144 187 375 563 482 783 27 56 65 147 84 202 33 95 35 98 32
51 -1 -30 2 -50 10 -53 7 -3 9 3 6 17 -5 20 -3 21 31 15 23 -5 41 -3 51 5 21
17 20 5 -10 -164 -33 -180 -57 -262 -106 -356 -83 -162 -98 -178 -543 -627
-121 -123 -216 -223 -211 -223 5 0 120 109 255 241 428 421 404 399 396 360
-3 -18 -6 -134 -6 -258 0 -223 0 -224 -22 -232 -18 -7 -25 -4 -31 11 -4 13
-13 18 -23 14 -9 -3 -20 -6 -25 -6 -5 0 -7 -11 -3 -24 5 -21 1 -24 -41 -35
-26 -7 -49 -10 -51 -9 -1 2 13 46 32 98 19 52 40 111 47 130 9 27 23 40 61 58
55 27 56 41 1 18 -21 -9 -39 -16 -41 -16 -1 0 2 14 8 31 6 16 8 32 6 34 -2 3
-12 -19 -22 -48 -45 -126 -138 -362 -167 -419 -109 -218 -303 -427 -502 -538
-31 -17 -54 -36 -51 -42 3 -5 0 -61 -7 -125 l-12 -115 -86 7 c-94 7 -191 24
-205 36 -4 4 41 34 100 67 60 33 119 69 132 79 12 10 28 17 35 15 6 -2 9 0 5
4 -4 4 0 13 10 21 30 24 -21 -3 -177 -95 l-143 -84 -79 12 c-93 15 -132 9
-213 -32 l-60 -30 -118 58 c-65 32 -118 64 -118 71 0 7 35 38 78 70 235 175
329 268 406 403 45 79 24 163 -36 145 -51 -16 -139 -67 -214 -123 -44 -33
-149 -94 -234 -137 -184 -92 -230 -123 -259 -176 l-22 -39 -31 17 c-53 32
-191 145 -263 218 -88 87 -127 147 -228 345 l-79 155 61 -67 c54 -58 178 -168
236 -207 11 -8 0 3 -25 24 -87 74 -226 221 -273 288 -62 90 -73 112 -112 231
-72 218 -77 246 -80 451 -2 105 -1 178 2 163 5 -30 30 -37 51 -16 7 7 12 9 12
5 0 -4 16 2 35 13 40 22 49 25 40 10 -3 -5 -1 -10 4 -10 6 0 11 4 11 8 0 5 17
13 37 18 31 8 38 15 49 49 13 40 14 40 8 5 -28 -189 -30 -396 -3 -520 61 -292
120 -450 224 -604 102 -152 121 -163 26 -16 -109 169 -186 367 -196 507 -4 43
-8 84 -10 90 -6 17 31 133 50 160 10 14 23 20 40 18 14 -1 28 1 30 6 3 4 37
15 77 24 57 13 73 13 79 3 6 -9 14 -7 32 10 16 15 41 24 83 28 l60 6 -12 -93
c-7 -52 -15 -148 -18 -214 -6 -128 -6 -128 36 5 22 70 114 288 130 307 5 7 19
8 35 4 26 -7 26 -8 24 -90 -1 -45 -4 -90 -7 -99 -3 -10 0 -8 5 3 5 11 28 85
51 165 51 177 185 479 309 694 l86 150 2 -110 c2 -60 12 -205 24 -321 l21
-213 -78 -107 c-43 -60 -118 -164 -167 -233 -130 -181 -173 -235 -254 -320
-40 -42 -73 -80 -73 -85 0 -4 33 25 73 66 90 92 250 230 338 292 l66 47 11
-33 12 -32 -5 35 c-5 34 -2 38 66 88 40 29 75 49 79 45 4 -4 16 -35 26 -67 10
-33 19 -55 21 -49 2 6 -7 44 -21 84 -39 117 -54 211 -67 414 -14 207 -6 368
27 544 13 72 19 89 25 73 5 -12 13 -22 18 -22z m274 -49 c-7 -29 14 -59 47
-66 24 -5 28 -10 20 -20 -6 -7 -7 -21 -3 -30 5 -14 3 -16 -7 -10 -9 6 -11 4
-5 -4 5 -9 14 -6 33 11 l26 23 -20 -32 c-10 -17 -40 -61 -66 -97 -38 -52 -53
-66 -74 -66 -19 0 -24 4 -20 18 2 9 16 73 31 142 14 69 28 131 30 138 7 19 14
14 8 -7z m1044 -188 c0 -61 36 -81 60 -33 21 40 15 8 -13 -76 -46 -137 -203
-444 -227 -444 -40 1 -38 17 14 136 63 144 75 178 101 274 19 73 52 160 61
160 2 0 4 -8 4 -17z m-127 -90 c-7 -37 -13 -74 -13 -81 0 -7 -5 -11 -11 -9 -6
2 -36 12 -67 20 -55 16 -56 17 -67 68 -14 60 -15 84 -1 50 9 -23 10 -23 37 -6
15 10 24 14 20 10 -11 -12 11 -35 34 -35 18 0 18 1 4 16 -21 20 -20 22 10 22
14 0 28 -7 31 -14 7 -20 23 -7 23 18 0 12 3 19 6 15 4 -3 1 -37 -6 -74z
m-7520 -173 c169 -55 311 -100 317 -100 8 0 33 -49 33 -65 0 -2 -21 -12 -47
-23 -95 -41 -104 -40 -330 31 -114 36 -236 73 -269 82 l-61 17 -33 86 c-18 48
-35 92 -37 99 -5 13 3 11 427 -127z m6820 92 c-12 -21 -38 -59 -58 -86 l-37
-48 -85 -4 c-96 -5 -121 -11 -102 -23 9 -5 5 -11 -13 -19 -14 -6 -25 -10 -25
-8 0 11 73 115 98 141 17 17 38 42 47 58 17 26 20 27 107 27 l89 0 -21 -38z
m354 32 c39 -6 49 -12 57 -33 6 -14 39 -84 75 -155 35 -71 63 -131 60 -133 -2
-2 -39 5 -82 16 -121 31 -304 51 -456 51 -76 0 -138 3 -138 7 0 4 10 17 22 30
16 17 33 23 62 23 62 0 79 16 28 27 l-40 8 25 30 c25 29 25 29 9 3 -16 -28
-16 -28 10 -28 27 0 89 57 136 126 23 34 23 34 104 34 45 0 102 -3 128 -6z
m6006 0 c0 -3 -13 -38 -29 -77 -16 -40 -31 -80 -35 -89 -3 -10 -13 -18 -21
-18 -29 0 -564 -174 -674 -219 -41 -17 -76 -29 -78 -27 -2 1 17 47 41 101 l44
98 324 103 c178 57 343 110 368 118 51 17 60 18 60 10z m-5146 -312 c48 -69
60 -118 60 -242 0 -95 -4 -132 -26 -212 -35 -126 -76 -215 -124 -267 -39 -44
-183 -165 -189 -159 -2 2 23 82 55 178 33 96 73 245 90 330 40 193 38 189 50
170 13 -21 13 5 0 29 -6 12 -5 57 2 129 12 110 12 110 34 95 12 -7 33 -31 48
-51z m-194 -389 c1 -60 1 -122 0 -140 -1 -39 -57 -228 -104 -349 -38 -100 -99
-232 -90 -195 4 14 9 150 13 302 6 267 7 279 29 306 12 15 48 63 79 105 32 42
61 77 65 78 4 0 7 -48 8 -107z m2580 66 c17 -14 19 -19 8 -15 -10 3 -18 0 -18
-5 0 -7 9 -9 21 -6 15 4 46 -13 115 -64 52 -39 94 -74 94 -79 0 -6 9 -10 19
-10 10 0 29 -8 42 -18 28 -23 34 -54 11 -50 -11 2 -17 -3 -16 -14 1 -11 -4
-15 -15 -10 -13 5 -14 3 -4 -9 10 -12 8 -15 -8 -15 -12 0 -19 7 -19 18 0 10
-3 19 -7 19 -52 8 -78 7 -90 -3 -11 -9 -19 -6 -39 15 -14 15 -36 27 -49 27
-14 0 -25 4 -25 9 0 4 12 6 28 3 21 -3 24 -2 16 8 -7 6 -24 13 -38 13 -16 1
-24 7 -21 14 2 7 -1 12 -8 10 -7 -1 -11 4 -9 12 2 8 -3 18 -10 23 -10 7 -10
11 3 21 20 15 13 38 -9 29 -16 -5 -16 -5 0 11 22 23 17 61 -13 87 -18 16 -19
19 -4 11 11 -6 31 -20 45 -32z m-682 -729 c9 -104 5 -230 -7 -230 -5 0 -6 -12
-3 -27 5 -25 4 -27 -12 -14 -14 12 -16 12 -10 -3 4 -11 1 -16 -11 -16 -11 0
-15 -5 -11 -15 3 -9 0 -15 -9 -15 -10 0 -12 9 -8 35 4 23 2 35 -6 35 -6 0 -11
-7 -11 -15 0 -8 -6 -15 -12 -15 -10 0 -10 -2 0 -8 9 -6 4 -17 -18 -42 -16 -18
-33 -30 -37 -27 -3 4 3 15 15 25 23 21 20 34 -6 25 -14 -4 -14 -3 -3 5 14 10
7 32 -10 32 -6 0 -7 -4 -4 -10 3 -5 3 -10 -1 -10 -8 0 -33 32 -34 43 0 12 28
8 33 -5 8 -23 15 -4 10 25 -3 16 -12 27 -22 27 -14 0 -14 2 -1 10 10 6 16 6
18 0 8 -21 24 -9 18 13 -13 43 -18 93 -7 77 5 -8 8 -17 5 -21 -2 -4 3 -10 12
-13 12 -4 15 -2 10 9 -3 8 -2 14 2 14 30 -5 53 28 30 42 -9 6 -9 11 1 23 12
14 9 18 -23 31 -20 9 -41 13 -46 10 -15 -9 -12 8 6 33 9 13 13 26 10 29 -3 4
-6 1 -6 -6 0 -7 -5 -9 -11 -5 -6 3 -15 0 -20 -7 -6 -9 -7 -2 -5 21 3 19 5 41
5 48 1 7 6 10 12 7 6 -4 8 -13 5 -20 -2 -7 2 -16 11 -19 22 -9 28 1 13 19 -10
12 -10 18 1 31 8 9 12 27 11 40 -2 13 1 24 6 24 6 0 8 10 6 23 -2 12 -2 16 2
10 3 -7 14 -13 25 -13 10 0 19 -4 19 -10 0 -5 -4 -10 -9 -10 -4 0 -6 -12 -3
-27 4 -23 3 -26 -9 -16 -11 9 -16 7 -26 -13 -12 -26 -5 -32 15 -12 7 7 12 8
12 4 0 -5 -8 -15 -17 -22 -17 -13 -17 -13 0 -14 11 0 21 9 24 20 3 11 9 20 13
20 4 0 6 14 4 30 -2 17 1 30 7 30 8 0 8 4 0 14 -8 10 -9 16 -1 21 5 3 10 18
11 33 1 46 38 -157 47 -258z m-1133 110 c10 8 18 5 34 -11 12 -13 21 -17 21
-11 0 20 21 13 27 -8 3 -11 7 -20 10 -20 11 0 33 30 34 47 1 10 7 -2 15 -27
32 -99 12 -472 -39 -745 l-13 -70 -6 105 c-4 58 -16 157 -27 220 -11 63 -25
162 -31 220 -6 58 -20 147 -31 199 -18 91 -23 130 -12 103 4 -9 8 -10 18 -2z
m288 -35 c2 -16 9 -31 17 -33 7 -3 10 0 6 6 -3 6 -2 13 4 17 5 3 10 -1 10 -10
0 -19 29 -65 41 -65 19 0 8 31 -13 40 -18 7 -19 9 -5 9 21 1 22 9 3 30 -9 10
-12 22 -7 30 10 15 83 -202 101 -300 28 -151 -24 -308 -173 -527 -27 -40 -52
-71 -54 -69 -2 3 1 35 7 73 9 67 32 323 50 567 5 64 6 152 3 195 -5 73 1 99
10 37z m1096 -394 c1 -7 -5 -11 -12 -8 -8 3 -20 1 -28 -4 -10 -6 -5 -9 17 -9
l32 0 31 -112 c109 -397 137 -641 91 -791 -52 -169 -201 -303 -575 -517 -529
-304 -814 -545 -1022 -862 -35 -53 -72 -116 -83 -141 -20 -46 -103 -357 -115
-435 -12 -78 -17 -36 -6 50 14 103 64 307 86 350 9 18 27 60 39 93 55 145 146
290 304 486 124 155 242 267 403 383 68 49 177 128 243 175 416 300 572 554
621 1008 l18 158 -22 58 c-22 55 -48 70 -38 21 3 -15 0 -24 -9 -24 -7 0 -14
-6 -17 -12 -2 -7 -8 -9 -13 -5 -5 5 -2 13 8 18 10 6 16 22 16 46 0 35 -1 36
-14 18 -7 -11 -18 -25 -24 -32 -13 -16 -13 -86 0 -78 15 9 12 -1 -4 -15 -13
-10 -15 7 -15 122 -1 120 -12 288 -25 386 -3 20 21 -42 54 -138 32 -96 59
-181 59 -189z m-6299 277 c31 -85 78 -178 91 -178 5 0 19 9 31 20 12 11 25 20
29 20 12 0 21 -38 14 -60 -4 -11 -2 -20 4 -20 6 0 11 5 11 12 0 9 3 9 12 0 18
-18 28 -15 29 11 0 12 13 -28 29 -88 40 -158 65 -227 122 -339 51 -103 106
-190 167 -265 l36 -44 -61 31 c-70 35 -129 97 -209 216 -53 81 -121 216 -145
291 -7 22 -16 45 -20 50 -5 6 -18 35 -30 65 -11 30 -32 76 -45 102 -31 59 -95
213 -95 227 0 23 8 9 30 -51z m578 -400 c8 -10 37 -37 65 -59 41 -33 60 -59
96 -132 25 -51 47 -96 49 -100 2 -5 -22 5 -54 21 -142 72 -402 301 -449 395
-27 54 -35 101 -10 57 9 -15 14 -19 15 -10 0 9 3 11 8 5 7 -10 61 -33 95 -40
25 -6 38 -15 32 -25 -3 -4 -2 -15 1 -23 5 -14 8 -13 23 1 17 16 15 20 -43 82
-34 36 -69 74 -76 85 -8 11 42 -38 110 -109 69 -71 131 -138 138 -148z m92
122 c41 -166 39 -161 96 -176 27 -7 50 -11 51 -10 2 2 -4 26 -13 55 -8 29 -13
56 -10 59 3 3 6 0 6 -7 0 -24 73 -208 120 -301 69 -138 148 -255 226 -334 38
-38 62 -65 54 -61 -36 22 -149 102 -191 137 -50 40 -159 168 -159 186 0 5 -6
12 -13 15 -18 7 -103 180 -137 282 -30 90 -71 262 -69 292 1 15 2 14 6 -2 2
-11 17 -72 33 -135z m5014 115 c-5 -27 -3 -35 8 -35 8 0 23 -9 33 -20 17 -19
19 -19 31 -2 25 32 14 -1 -20 -63 -32 -56 -148 -198 -208 -253 -20 -19 -15 -3
28 85 30 59 71 156 91 215 21 60 39 108 41 108 2 0 0 -16 -4 -35z m2639 -2 c4
-2 0 -12 -10 -21 -15 -16 -15 -17 0 -20 9 -2 17 -7 17 -12 0 -12 151 -81 169
-78 27 6 19 42 -13 56 -16 7 -27 14 -24 17 7 8 401 -154 418 -172 8 -8 -39 7
-90 29 -25 11 -54 23 -65 28 -11 4 -32 12 -47 18 -22 9 -26 9 -21 -3 3 -8 9
-12 14 -9 5 3 9 -3 9 -13 0 -15 2 -16 10 -3 9 13 10 13 10 0 0 -9 -5 -21 -11
-27 -8 -8 -3 -16 20 -27 17 -9 31 -18 31 -20 0 -2 -116 49 -257 113 -142 65
-266 121 -277 125 -15 5 -16 9 -5 22 12 14 14 14 19 -2 5 -12 9 -14 14 -6 4 7
13 9 19 5 7 -4 7 -1 -1 9 -12 15 -10 16 25 6 21 -5 41 -12 46 -15z m-8570 -70
c-3 -50 -1 -54 8 -33 6 14 13 21 14 15 71 -244 123 -368 208 -497 63 -97 129
-172 210 -240 85 -71 91 -59 11 25 -75 77 -142 167 -192 257 -34 61 -102 230
-102 255 0 33 17 11 52 -71 114 -262 332 -524 508 -612 l55 -27 -172 -3 c-149
-2 -180 0 -230 17 -85 29 -148 67 -217 132 -56 52 -65 66 -98 155 -61 167 -73
243 -72 460 0 165 5 224 16 224 2 0 2 -26 1 -57z m-2049 5 c-187 -197 -375
-497 -449 -718 l-32 -95 -129 -52 c-71 -29 -132 -53 -137 -53 -10 0 78 167
156 298 70 117 245 353 336 455 34 37 61 65 61 62 0 -3 -28 -38 -63 -78 -72
-82 -165 -205 -223 -292 -46 -68 -64 -100 -42 -74 16 20 68 31 62 14 -8 -20
29 -28 42 -11 6 9 15 16 21 16 5 0 26 29 47 66 60 101 163 251 230 334 69 86
146 170 154 170 4 0 -12 -19 -34 -42z m-1162 10 c-9 -9 -9 -15 1 -26 10 -13 8
-14 -12 -7 -16 5 -21 4 -17 -4 4 -6 14 -11 22 -11 8 0 14 -4 14 -10 0 -5 -4
-10 -10 -10 -5 0 -10 -10 -11 -22 0 -13 -3 -17 -6 -10 -2 6 -11 12 -19 12 -10
0 -12 -5 -7 -12 4 -7 9 -24 10 -38 2 -25 2 -25 -7 -2 -10 23 -36 32 -27 8 3
-8 -2 -16 -14 -19 -10 -3 -19 -10 -19 -16 0 -14 17 -14 25 -1 14 22 23 8 15
-22 l-9 -33 29 35 c16 19 28 40 25 47 -2 6 4 13 13 15 9 2 17 10 18 18 4 54 4
55 14 40 5 -9 5 -20 -2 -30 -5 -8 17 14 51 50 33 36 61 60 61 53 0 -6 -3 -13
-8 -15 -4 -1 -45 -47 -91 -100 -256 -295 -392 -563 -416 -816 -6 -65 9 -212
25 -241 5 -9 26 -54 48 -101 45 -98 125 -203 239 -311 146 -139 282 -228 465
-305 47 -20 68 -32 48 -28 -127 24 -369 133 -475 213 -156 119 -335 341 -398
495 -22 55 -33 72 -35 57 -7 -49 31 -251 68 -361 28 -84 34 -108 20 -90 -62
81 -182 397 -221 583 -30 138 -32 375 -6 492 19 81 56 195 64 195 2 0 1 -10
-2 -21 -5 -13 -3 -19 3 -15 13 8 22 56 10 56 -15 0 0 17 20 22 16 5 18 -1 18
-35 -1 -24 4 -42 12 -44 7 -3 12 4 12 15 0 14 5 19 18 15 12 -3 21 4 29 24 11
27 11 28 12 4 1 -24 1 -24 15 -5 23 31 28 10 10 -36 -14 -35 -19 -40 -24 -24
-6 17 -8 17 -19 -5 -7 -13 -8 -21 -3 -17 14 8 24 -8 16 -28 -4 -12 -11 -13
-24 -6 -15 8 -25 3 -50 -21 -17 -17 -28 -34 -24 -38 4 -3 9 0 11 7 3 6 11 12
19 12 8 0 14 7 14 16 0 9 7 14 18 12 23 -5 19 -35 -19 -168 -25 -84 -32 -129
-35 -225 l-3 -120 14 90 c26 165 74 301 163 462 l23 42 21 -21 c17 -17 18 -24
9 -45 -14 -30 -14 -44 0 -20 5 9 16 17 24 17 9 0 12 6 9 15 -4 8 -1 15 5 15 6
0 11 10 11 21 0 12 8 28 18 35 27 21 40 16 14 -6 -14 -12 -18 -21 -12 -25 8
-5 6 -13 -6 -26 -9 -10 -13 -19 -8 -19 11 1 115 152 109 159 -3 2 -11 -2 -20
-9 -12 -10 -15 -10 -15 4 0 9 -7 19 -15 22 -8 4 -15 10 -15 14 0 4 17 -1 37
-11 20 -10 39 -16 42 -12 3 3 0 8 -6 10 -7 3 -13 9 -13 15 0 6 6 5 15 -2 9 -7
18 -11 20 -8 9 9 -7 38 -20 38 -7 0 -15 12 -17 28 -3 15 -7 32 -9 38 -4 12
109 142 126 143 5 1 4 -4 -3 -11z m2209 -17 c-26 -21 -31 -30 -20 -35 8 -3 5
-4 -6 -1 -14 3 -36 -10 -70 -41 -36 -33 -56 -44 -72 -41 -13 2 -23 0 -23 -4 0
-12 -57 -12 -64 0 -9 14 178 141 200 135 11 -3 30 -1 44 5 43 17 46 11 11 -18z
m2188 -104 c20 -11 45 -28 56 -37 42 -35 195 -122 264 -150 112 -46 214 -109
348 -217 l43 -34 -51 -44 c-27 -25 -54 -45 -60 -45 -38 0 -482 214 -555 267
-53 38 -66 55 -79 94 -15 43 -55 202 -55 216 0 3 12 -3 27 -12 14 -10 42 -27
62 -38z m4801 -76 c5 -11 10 -31 10 -45 0 -33 7 -33 42 1 21 20 28 23 28 11 0
-10 12 -18 35 -22 19 -3 51 -9 70 -12 31 -5 36 -3 45 20 17 45 20 28 3 -20
-21 -63 -104 -223 -154 -295 -120 -177 -268 -311 -549 -497 -257 -170 -381
-263 -493 -372 -117 -112 -176 -191 -243 -327 -30 -62 -57 -113 -59 -113 -17
0 66 195 193 452 92 187 92 207 -2 90 -98 -122 -153 -217 -254 -442 -11 -24
-11 -24 -6 5 31 163 187 437 356 623 94 104 165 168 344 313 225 181 439 405
563 588 23 34 46 61 51 61 5 0 14 -9 20 -19z m-9744 -50 c-16 -16 -25 -34 -22
-39 3 -6 -1 -23 -9 -38 -10 -20 -15 -23 -15 -11 0 9 -4 17 -9 17 -6 0 -8 -9
-6 -20 2 -11 -7 -45 -21 -76 -59 -133 -91 -369 -81 -594 12 -277 73 -507 209
-787 183 -379 548 -669 948 -754 84 -18 139 -23 276 -23 l170 -1 -50 -19
c-164 -61 -206 -69 -356 -70 -159 -1 -234 12 -390 66 -283 99 -565 324 -750
598 -187 278 -268 550 -257 865 7 218 56 436 132 585 41 81 101 165 118 165 6
0 12 8 12 17 0 17 109 148 122 148 4 0 -6 -13 -21 -29z m10322 -70 c-4 -25
-10 -66 -13 -91 -40 -321 -166 -554 -423 -783 -87 -77 -378 -293 -338 -251 4
5 77 81 161 169 85 88 179 192 209 230 124 156 232 430 277 708 9 54 17 77 27
77 11 0 12 -3 3 -14 -9 -11 -10 -20 -1 -35 13 -25 23 -26 39 -7 9 11 8 18 -6
32 -16 16 -16 17 -1 12 9 -4 22 -1 28 7 9 11 16 11 29 3 15 -9 16 -18 9 -57z
m3410 -275 c311 -185 671 -491 787 -670 69 -106 127 -224 154 -311 26 -81 41
-253 23 -241 -7 4 -12 2 -12 -3 0 -6 -5 -11 -11 -11 -6 0 -9 12 -7 27 2 14 -2
28 -8 30 -7 2 -10 -6 -7 -22 6 -28 1 -30 -29 -14 -13 7 -18 7 -14 1 3 -6 2
-13 -4 -17 -5 -3 -10 -11 -10 -17 0 -7 6 -6 15 2 19 16 19 1 0 -23 -13 -18
-14 -18 -25 2 -6 12 -8 26 -5 31 3 5 1 11 -5 15 -10 6 -24 -3 -60 -39 -10 -10
-24 -16 -31 -14 -8 3 -7 9 5 21 18 17 14 37 -7 37 -8 0 -8 -3 2 -9 10 -7 8
-12 -9 -24 -12 -9 -28 -13 -35 -11 -9 4 -11 -3 -7 -23 10 -58 -7 -14 -32 82
-30 115 -148 364 -231 490 -53 80 -221 267 -325 361 -148 134 -268 228 -452
354 -60 40 -108 75 -108 77 0 5 5 2 63 -34 21 -13 42 -21 48 -18 5 4 8 2 7 -4
-2 -5 33 -35 76 -65 62 -43 84 -53 97 -45 11 6 20 5 24 -1 6 -9 -8 -14 -28
-11 -5 1 -6 -3 -3 -7 3 -5 16 -7 30 -5 17 4 22 10 19 24 -3 10 0 19 6 19 6 0
11 -4 11 -10 0 -15 16 -12 18 3 0 6 5 30 11 52 5 22 7 43 3 46 -4 4 -43 25
-87 48 -44 23 -91 51 -105 62 -32 27 124 -55 258 -135z m-7444 33 l106 -52
-56 -23 c-31 -13 -82 -39 -113 -58 -48 -29 -62 -33 -91 -27 -19 4 -34 12 -33
17 3 12 78 194 80 194 1 0 49 -23 107 -51z m-2704 -164 c45 -77 152 -184 213
-214 110 -53 121 -54 582 -58 404 -3 439 -5 578 -28 82 -14 160 -25 173 -25
13 0 24 -4 24 -10 0 -12 11 -13 -122 6 -63 9 -180 16 -263 16 -135 1 -208 -6
-453 -42 -317 -45 -516 -39 -633 20 -58 30 -116 104 -139 178 -21 69 -26 103
-35 252 l-6 95 23 -66 c13 -36 39 -92 58 -124z m-5421 -175 c46 -5 85 -11 87
-12 1 -2 27 -34 58 -73 l56 -70 -1 -80 c0 -44 -3 -97 -7 -119 l-7 -38 -110
138 c-239 301 -222 277 -189 270 16 -3 67 -10 113 -16z m17185 8 c-12 -20 -57
-79 -219 -283 -83 -104 -181 -233 -218 -286 l-67 -96 -42 8 c-24 4 -62 8 -85
9 -75 0 -79 -6 225 383 106 136 197 247 200 248 25 3 199 27 205 28 5 0 5 -5
1 -11z m-16787 -255 c0 -162 13 -292 40 -397 8 -32 11 -62 6 -66 -14 -13 -174
-62 -181 -56 -3 4 4 9 16 13 25 6 30 33 7 33 -8 0 -15 -5 -15 -12 0 -25 -12 3
-25 59 -18 75 -19 111 -3 95 7 -7 19 -12 27 -12 11 0 12 3 3 12 -9 9 -9 15 0
26 9 10 9 15 -2 22 -17 11 -30 4 -30 -16 0 -8 -4 -14 -9 -14 -13 0 -21 82 -21
224 0 173 8 240 26 225 8 -6 14 -21 14 -33 0 -17 2 -18 10 -6 8 12 10 9 10
-12 0 -26 2 -27 33 -21 l32 6 -20 -23 -20 -23 24 8 c16 5 26 3 32 -6 15 -24
10 -31 -17 -25 l-26 7 28 -25 c36 -31 50 -20 32 25 -16 40 -12 79 8 79 9 0 14
11 14 35 0 19 1 35 3 35 2 0 3 -71 4 -157z m2311 152 c-7 -7 -138 -48 -311
-95 l-158 -44 28 -24 c15 -13 44 -36 63 -51 19 -14 38 -29 41 -34 7 -10 68
-46 92 -53 20 -7 23 -24 5 -24 -7 0 -24 -9 -38 -20 -14 -11 -31 -20 -37 -20
-21 0 -174 -76 -167 -83 3 -3 18 -1 33 4 18 7 23 7 16 0 -6 -6 -22 -12 -35
-13 -21 -3 -33 9 -72 67 -40 59 -114 213 -105 221 1 1 66 18 144 38 181 45
420 111 453 125 26 10 57 14 48 6z m4690 -63 c13 -38 0 -107 -26 -135 -11 -12
-30 -43 -42 -69 -12 -27 -25 -48 -29 -48 -3 0 -30 16 -58 35 -28 19 -70 42
-91 51 -37 14 -43 14 -70 0 -17 -9 -34 -21 -37 -26 -4 -6 -15 0 -27 15 -41 53
-88 49 -168 -12 -40 -31 -39 -29 13 21 32 31 66 56 77 56 10 0 23 6 27 13 17
27 179 87 298 111 110 22 122 20 133 -12z m1062 -25 l125 -12 -85 -13 c-47 -7
-137 -20 -200 -28 -63 -9 -123 -20 -133 -26 -34 -18 -14 8 38 50 57 47 60 47
255 29z m-2045 -61 c144 -28 316 -83 342 -108 l23 -24 -30 -40 c-19 -26 -59
-58 -112 -89 -110 -63 -205 -135 -248 -186 -61 -75 -184 -272 -225 -362 l-40
-87 -70 8 c-112 11 -324 5 -379 -12 -47 -14 -50 -14 -80 8 -52 39 -90 54 -154
62 -73 8 -73 7 -42 149 30 133 66 234 112 311 130 219 287 337 509 384 61 13
298 4 394 -14z m3865 -2 c0 -3 -20 -34 -45 -68 -68 -95 -121 -210 -152 -326
-26 -101 -27 -115 -28 -350 0 -207 4 -269 23 -400 22 -144 55 -319 68 -365 15
-50 -111 97 -182 214 -43 69 -130 209 -194 311 -65 102 -127 204 -138 227 -12
23 -56 86 -97 141 -44 58 -73 106 -70 114 3 8 -24 55 -63 109 -38 53 -72 104
-75 115 -5 16 6 25 71 54 42 19 91 45 110 58 19 13 48 22 70 22 71 0 258 38
382 78 158 51 320 84 320 66z m-3091 -114 c31 -17 85 -54 121 -83 60 -49 65
-56 65 -92 0 -38 -2 -40 -33 -43 -26 -3 -49 7 -100 40 -83 54 -174 125 -184
143 -12 20 1 43 30 54 39 14 39 14 101 -19z m-5704 -253 c17 -61 14 -77 -13
-77 -42 0 -858 -163 -1097 -220 -44 -10 -93 -20 -110 -23 -38 -5 -423 -104
-450 -116 -11 -4 -36 -13 -55 -19 -328 -99 -972 -323 -1195 -417 -254 -107
-241 -89 25 33 384 177 885 378 1275 511 83 29 218 76 300 105 152 54 383 130
575 187 58 17 110 37 116 45 10 12 118 46 454 141 l135 38 12 -65 c7 -36 19
-91 28 -123z m9428 -49 c43 -62 97 -159 97 -176 0 -5 -33 -33 -72 -63 -40 -30
-145 -126 -234 -214 -167 -167 -241 -263 -323 -420 l-42 -80 6 65 c24 232 126
472 304 711 78 105 196 239 211 239 5 0 28 -28 53 -62z m-1750 -179 c45 -22
70 -29 93 -26 31 5 41 -3 191 -156 87 -89 236 -251 331 -359 94 -108 176 -200
182 -203 5 -3 10 -11 10 -16 0 -6 -17 3 -37 19 -35 27 -164 103 -153 89 3 -3
41 -29 85 -58 146 -95 321 -286 380 -416 34 -74 31 -81 -15 -39 -51 46 -182
112 -285 143 -44 13 -140 31 -213 40 -113 14 -150 15 -240 5 -142 -16 -331
-64 -416 -107 l-69 -34 -41 21 c-32 17 -64 23 -141 26 -88 4 -109 1 -174 -22
-117 -41 -213 -107 -341 -236 -86 -85 -122 -129 -140 -170 -14 -30 -28 -57
-31 -60 -3 -3 -10 -17 -15 -33 -9 -27 -10 -26 -64 54 -93 137 -88 117 -47 182
20 31 51 85 68 119 l32 63 13 -35 c7 -19 13 -50 13 -67 1 -38 16 -45 19 -9 6
73 75 243 140 344 8 12 12 22 8 22 -10 0 -97 -140 -129 -209 -28 -59 -31 -63
-40 -43 -8 17 -3 47 21 125 64 205 85 364 85 642 0 110 -5 224 -10 253 -10 52
-10 53 11 47 11 -4 71 -10 133 -12 129 -6 174 5 308 72 74 37 85 40 130 33 63
-10 215 6 252 26 36 19 26 21 96 -15z m9132 1 c517 -73 1032 -320 1360 -654
44 -44 123 -111 175 -148 86 -62 213 -167 165 -138 -11 7 3 -10 31 -36 197
-188 362 -411 441 -596 30 -72 73 -214 73 -243 0 -5 -25 36 -55 93 -70 131
-112 197 -190 297 -307 392 -986 775 -1585 895 -80 16 -197 40 -260 54 -369
79 -922 105 -1385 66 -252 -21 -562 -56 -588 -66 -21 -8 -21 -6 3 48 l20 45
172 41 c427 103 658 132 1054 132 252 0 355 -12 694 -80 374 -75 577 -122 665
-155 38 -14 -70 56 -147 96 -190 96 -492 194 -734 238 -197 35 -335 44 -564
38 -193 -6 -255 -11 -355 -31 -23 -5 -20 -3 10 9 86 34 334 85 520 108 98 12
346 5 480 -13z m-10076 -251 c60 -620 -119 -1101 -539 -1450 -274 -227 -757
-490 -1029 -560 -87 -22 -101 -23 -101 -6 0 6 30 23 68 35 69 24 353 164 424
208 22 14 46 23 54 20 8 -3 13 -2 10 3 -5 7 52 44 242 155 76 44 241 183 352
296 108 110 198 236 246 348 38 88 98 318 120 461 21 137 29 360 15 465 -12
102 -10 109 55 137 23 9 45 23 50 30 12 20 20 -15 33 -142z m8316 74 c-10 -77
-41 -170 -96 -293 -28 -63 -73 -167 -99 -230 -161 -388 -284 -575 -551 -835
-169 -165 -359 -315 -399 -315 -5 0 -10 -4 -10 -10 0 -5 4 -10 10 -10 5 0 42
-16 82 -34 40 -19 141 -58 223 -86 83 -28 139 -48 125 -46 -124 26 -209 50
-204 58 3 5 -5 6 -18 3 -27 -7 -450 158 -563 220 -104 57 -194 115 -208 134
-6 9 -29 27 -50 40 -29 18 -37 29 -34 43 3 11 0 22 -9 25 -8 3 -20 15 -26 27
-9 18 -6 17 18 -6 72 -67 576 -348 625 -348 27 0 179 112 274 202 191 181 377
424 478 624 94 187 167 477 167 663 0 65 3 81 15 81 8 0 15 3 15 8 0 4 12 12
26 19 23 10 26 9 34 -13 9 -23 30 -34 30 -14 0 5 8 7 18 4 10 -4 13 -3 6 3
-16 12 -28 53 -15 53 23 0 26 -2 23 -16 -4 -22 19 -17 25 6 6 21 37 27 49 9 9
-16 24 9 24 42 0 23 7 39 17 39 2 0 1 -21 -2 -47z m-615 -180 c-109 -48 -247
-119 -330 -168 -52 -32 -174 -93 -270 -137 -96 -43 -184 -85 -196 -93 -11 -7
-69 -25 -130 -39 -150 -37 -152 -37 -158 -27 -3 5 19 12 49 16 69 8 109 44
101 89 -4 16 1 42 10 62 9 19 14 38 10 41 -3 4 0 14 8 22 8 9 16 36 18 61 l3
45 -95 10 c-86 9 -73 10 145 11 294 0 509 28 755 98 99 28 129 31 80 9z
m-8295 -179 c59 -88 121 -212 154 -308 64 -182 103 -384 84 -434 l-9 -23 -39
34 c-56 48 -190 134 -254 163 -64 30 -153 54 -197 54 -31 0 -33 3 -64 85 -27
70 -43 95 -94 147 -33 35 -107 94 -164 131 -57 38 -101 74 -99 80 2 7 26 20
53 29 38 14 83 17 204 17 171 0 226 9 315 51 33 15 63 29 67 29 3 1 23 -24 43
-55z m-5651 -33 l38 -39 -63 -49 c-283 -217 -685 -622 -861 -868 -90 -125
-327 -522 -389 -649 -118 -244 -187 -468 -236 -766 -22 -137 -26 -199 -27
-366 -1 -201 -1 -201 -17 -150 -33 104 -55 527 -40 753 27 396 95 610 277 881
266 394 661 807 1142 1193 67 55 126 99 130 99 4 0 25 -18 46 -39z m9176 -632
c0 -99 -4 -267 -10 -372 -12 -247 -17 -355 -31 -727 -6 -168 -14 -313 -18
-322 -5 -14 -26 -1 -112 68 l-107 85 4 182 c2 100 8 250 13 332 6 83 13 263
17 400 l7 250 68 96 c76 106 146 189 160 189 5 0 9 -78 9 -181z m-13585 88
c-360 -206 -620 -455 -753 -722 -82 -164 -152 -378 -173 -523 -15 -109 -6
-446 14 -522 l15 -55 1 101 c3 274 57 537 146 714 33 64 144 241 145 229 0 -4
-25 -58 -55 -120 -194 -405 -232 -996 -85 -1340 31 -73 86 -166 129 -215 14
-17 -7 4 -48 45 -194 198 -398 526 -484 781 -56 163 -72 257 -71 400 4 390
217 665 769 991 220 130 529 298 550 299 6 0 -39 -28 -100 -63z m7760 -72 c25
-36 55 -69 65 -75 11 -6 26 -23 34 -38 16 -30 11 -68 -44 -367 -17 -88 -35
-203 -41 -255 -19 -169 -48 -275 -114 -415 -53 -114 -152 -281 -161 -272 -2 2
15 111 37 243 21 131 48 304 59 384 64 469 102 752 107 803 3 31 7 57 9 57 1
0 23 -29 49 -65z m2307 -169 c53 -28 137 -87 137 -96 0 -3 -33 -41 -74 -85
-65 -70 -75 -78 -87 -64 -7 8 -32 30 -55 48 -30 23 -46 44 -53 72 -6 22 -20
61 -31 86 -19 46 -19 48 -2 61 27 20 104 10 165 -22z m1093 -6 c38 -42 -20
-124 -182 -259 -100 -82 -222 -211 -278 -292 -63 -93 -110 -169 -132 -214 -26
-53 -25 -29 1 41 12 33 22 179 16 239 -1 18 -24 -29 -31 -65 l-7 -35 -1 34
c-3 103 280 456 423 526 97 47 163 56 191 25z m-8580 -112 c-53 -104 -162
-366 -195 -468 -37 -114 -141 -549 -156 -655 -9 -64 -15 -179 -15 -275 0 -257
33 -434 115 -614 37 -80 180 -321 262 -439 59 -86 58 -96 -2 -17 -24 31 -41
46 -45 38 -5 -8 -12 -6 -24 5 -15 15 -18 15 -31 2 -14 -13 -10 -22 32 -77 26
-35 63 -81 83 -103 l36 -40 -43 40 c-104 96 -290 363 -359 514 -53 114 -108
292 -134 426 -31 161 -33 490 -6 665 10 63 23 120 28 126 5 6 6 13 3 16 -17
17 81 328 164 519 90 207 97 217 221 333 63 58 115 106 116 106 2 0 -21 -46
-50 -102z m10217 -86 l62 -59 0 -71 c0 -40 3 -67 8 -60 4 7 8 -22 8 -66 0 -76
-5 -93 -57 -185 -5 -8 -53 -9 -59 0 -12 20 -17 61 -25 199 -4 80 -10 180 -13
223 -3 46 -2 77 4 77 5 0 37 -26 72 -58z m-2395 -93 c110 -126 125 -158 116
-252 -3 -39 -8 -65 -10 -57 -12 43 -15 43 -28 6 -12 -36 -12 -43 7 -80 27 -54
20 -46 -43 49 -29 44 -103 130 -164 190 l-110 111 65 65 c36 36 70 65 75 64 6
-1 47 -44 92 -96z m-9635 -151 c-83 -100 -278 -370 -385 -533 -267 -410 -428
-823 -479 -1235 -3 -21 -17 -7 -97 100 -51 69 -98 135 -103 146 -14 31 56 234
137 399 166 336 522 784 880 1107 66 59 121 108 122 108 2 0 -32 -42 -75 -92z
m18948 -68 c320 -19 600 -49 890 -96 141 -23 222 -38 481 -93 435 -93 914
-367 1371 -785 160 -146 338 -339 325 -352 -3 -3 -10 3 -16 15 -20 36 -345
334 -462 423 -375 285 -824 494 -1334 622 -414 104 -664 149 -911 166 -82 5
-176 14 -209 20 -33 6 -163 22 -290 36 -126 14 -282 32 -345 39 l-115 13 225
1 c124 0 299 -4 390 -9z m-1545 -323 c348 -70 590 -107 880 -137 182 -19 485
-75 485 -91 0 -7 -351 -104 -450 -124 -109 -21 -360 -53 -475 -60 -55 -3 -128
-8 -162 -11 -41 -4 -63 -2 -63 5 0 6 12 8 29 5 23 -5 29 -2 33 14 6 22 -17 39
-27 21 -7 -10 -64 -9 -71 3 -3 4 -12 5 -22 2 -13 -5 -14 -4 -3 4 7 5 54 10
105 11 102 2 384 34 491 56 39 8 71 15 72 15 1 0 0 6 -3 13 -4 10 -52 12 -237
9 -174 -3 -271 0 -387 12 -247 27 -574 93 -838 169 l-113 33 48 16 c27 9 93
19 148 23 55 4 159 15 230 25 153 21 161 21 330 -13z m1060 -8 c260 -38 490
-93 621 -149 292 -123 605 -315 1019 -624 297 -222 349 -257 329 -224 -14 23
111 -80 191 -156 l80 -77 -105 79 c-411 311 -1079 700 -1467 857 -67 27 -120
52 -117 56 12 20 -466 180 -773 259 -48 12 -58 22 -15 15 15 -3 122 -19 237
-36z m-18099 -221 c-59 -102 -174 -381 -229 -553 -107 -337 -164 -770 -147
-1125 3 -74 5 -136 5 -138 -1 -1 -9 0 -17 3 -22 9 -28 58 -28 253 0 588 157
1168 437 1615 45 72 32 36 -21 -55z m14774 -168 c47 -10 144 -24 215 -30 72
-6 157 -20 190 -30 33 -10 80 -22 105 -25 25 -4 74 -20 110 -35 168 -74 448
-163 700 -220 74 -18 137 -34 140 -37 3 -3 -7 -3 -22 -1 -28 5 -38 -5 -18 -17
12 -7 13 -55 2 -55 -5 0 -14 10 -20 23 -7 13 -11 16 -11 7 -2 -36 43 -67 129
-89 121 -32 251 -73 247 -78 -3 -2 -51 10 -108 27 -281 83 -577 131 -914 146
-142 6 -166 9 -209 31 -41 21 -611 371 -656 403 -12 9 -10 10 10 5 14 -3 63
-14 110 -25z m-5488 -162 c57 -30 205 -38 262 -14 68 28 88 22 169 -51 42 -38
74 -72 73 -78 -2 -5 -41 -43 -88 -83 l-85 -72 -49 22 c-38 18 -67 23 -135 23
-77 0 -92 -3 -149 -32 l-62 -33 -47 39 c-25 22 -65 59 -88 83 l-42 43 84 88
c47 48 92 87 100 87 8 0 33 -10 57 -22z m10520 -50 c15 -10 69 -39 120 -64
108 -54 288 -174 403 -269 44 -36 140 -126 213 -198 269 -265 453 -530 626
-899 88 -187 87 -188 -29 -19 -42 63 -106 151 -141 195 -35 45 -108 138 -164
209 -270 343 -601 667 -1030 1008 -118 94 -144 124 -75 84 28 -16 62 -37 77
-47z m-20405 -99 c-134 -377 -213 -713 -224 -956 -3 -68 -9 -123 -13 -123 -34
0 -31 72 10 316 40 233 124 529 228 802 19 51 37 91 39 89 2 -2 -16 -60 -40
-128z m3312 -90 c-26 -86 -132 -509 -159 -639 -12 -58 -27 -109 -33 -115 -7
-7 -8 -4 -3 9 4 11 2 22 -5 26 -8 6 -8 13 0 28 14 27 15 54 1 32 -9 -13 -10
-13 -10 0 0 8 -9 21 -19 27 -11 7 -20 20 -20 30 1 75 -30 115 -45 60 -5 -19
-11 -26 -14 -18 -7 21 313 640 324 628 2 -2 -6 -32 -17 -68z m17853 10 c198
-108 457 -294 614 -442 221 -209 421 -493 534 -757 49 -114 124 -355 151 -483
26 -125 36 -422 20 -593 -40 -417 -180 -852 -384 -1197 -40 -68 -63 -87 -31
-26 24 47 89 232 119 341 100 353 118 636 61 963 -22 126 -84 415 -90 422 -1
1 -2 -91 -2 -205 -1 -433 -81 -850 -236 -1230 -28 -68 -52 -121 -54 -119 -2 2
6 27 17 56 34 89 147 560 161 671 21 165 17 740 -5 900 -40 275 -111 564 -171
695 -73 158 -245 427 -390 610 -78 98 -317 345 -406 420 -57 47 -31 40 92 -26z
m-4752 -73 c430 -55 760 -147 1085 -300 405 -192 757 -510 988 -892 66 -110
166 -327 207 -449 48 -145 50 -169 7 -92 -135 240 -458 564 -722 723 -36 21
-80 48 -97 58 -34 21 -33 21 -233 33 -505 29 -916 -28 -1575 -217 -74 -22
-155 -46 -179 -55 -53 -18 -58 -19 -58 -1 0 8 7 11 18 9 9 -3 20 0 23 6 5 7 1
8 -9 5 -8 -4 -21 -1 -29 5 -7 6 -15 8 -18 5 -3 -3 -9 -1 -13 5 -3 6 0 11 7 11
8 0 7 4 -4 11 -9 5 -15 15 -13 22 3 6 -10 22 -27 35 -30 20 -31 22 -10 22 12
0 22 5 22 10 0 14 -16 12 -75 -5 -27 -9 -45 -11 -40 -6 14 12 387 139 590 199
279 84 425 120 525 131 317 36 395 43 481 42 89 -1 188 -13 210 -26 5 -4 9 -4
9 -2 0 9 -253 129 -373 177 -67 26 -154 61 -192 78 -181 78 -438 138 -845 196
-338 48 -430 56 -778 63 -171 3 -297 10 -290 15 21 13 -10 27 -51 21 -160 -21
372 111 634 158 155 27 168 28 435 24 160 -2 323 -10 390 -19z m-15471 -521
c49 -255 130 -420 304 -618 148 -168 401 -328 620 -393 52 -15 76 -34 45 -34
-8 0 -9 -3 -3 -8 6 -4 17 -16 25 -27 14 -18 13 -19 -1 -8 -9 7 -19 10 -22 7
-4 -4 -17 -7 -29 -8 -14 -1 -22 -7 -20 -15 2 -10 -5 -12 -25 -8 -16 3 -36 0
-46 -8 -18 -13 -18 -13 0 -18 10 -3 4 -5 -14 -6 -65 -2 -251 52 -353 104 -117
59 -264 172 -307 235 -13 19 -42 58 -64 85 -68 84 -147 256 -171 370 -27 127
-29 367 -5 495 31 164 31 164 38 60 4 -52 16 -144 28 -205z m9073 197 c38 -2
60 2 70 11 13 13 16 12 27 -4 6 -11 16 -17 21 -14 20 12 9 -11 -20 -47 -52
-62 -141 -64 -205 -4 -19 18 -35 37 -35 42 1 5 17 21 38 35 36 25 37 25 42 5
5 -18 15 -21 62 -24z m-43 -112 c57 -15 117 2 158 46 19 21 34 30 38 23 4 -6
16 -14 26 -18 18 -6 17 -10 -17 -44 -42 -42 -108 -77 -145 -77 -47 0 -129 31
-165 62 -42 37 -63 71 -39 61 11 -4 18 1 22 16 5 20 8 18 44 -18 23 -24 54
-44 78 -51z m8173 40 c124 -11 270 -31 393 -55 251 -49 864 -371 1081 -568
207 -189 440 -564 543 -874 23 -68 41 -128 41 -135 0 -7 -33 44 -73 112 -142
244 -243 378 -411 545 -309 308 -775 568 -1197 670 -63 15 -139 33 -169 41
-30 7 -56 12 -57 10 -2 -2 97 -53 219 -114 352 -176 563 -327 839 -602 86 -85
194 -203 240 -261 76 -97 209 -302 209 -323 0 -4 -19 16 -42 46 -64 82 -313
325 -408 399 -266 206 -617 396 -879 476 -93 28 -93 28 -149 98 -155 195 -389
404 -592 529 l-45 28 172 -7 c95 -3 223 -10 285 -15z m-8296 -169 c15 -16 124
-41 174 -41 26 0 70 7 100 16 44 13 55 13 66 2 21 -21 -246 -179 -330 -195
-34 -6 -62 -10 -62 -10 -11 14 -54 110 -54 122 0 19 69 97 81 89 5 -3 6 2 3
10 -7 18 7 21 22 7z m9236 -35 c336 -121 616 -274 845 -458 100 -81 265 -240
298 -287 91 -132 156 -489 189 -1041 l5 -85 -18 95 c-75 386 -248 785 -463
1071 -85 113 -190 215 -368 358 -184 148 -344 255 -489 328 -58 29 -103 53
-99 53 4 0 49 -15 100 -34z m-17755 -467 c76 -66 170 -118 246 -136 34 -8 96
-24 137 -35 41 -12 120 -29 175 -39 91 -17 94 -18 38 -16 -51 3 -60 1 -51 -10
8 -10 6 -13 -10 -13 -14 0 -21 -8 -23 -27 -6 -39 1 -74 12 -68 17 11 49 14 49
5 0 -15 -18 -21 -23 -8 -4 9 -6 8 -6 -3 -1 -10 -10 -15 -23 -15 -14 1 -23 -5
-23 -14 0 -8 5 -15 10 -15 23 -1 95 -40 95 -52 0 -31 -71 1 -215 96 -108 72
-210 152 -301 238 -62 57 -159 163 -151 163 3 0 32 -23 64 -51z m-1578 -80
c23 -8 31 -17 31 -35 0 -44 41 -216 76 -315 72 -207 175 -396 329 -604 155
-210 290 -340 493 -475 210 -140 412 -225 662 -279 52 -11 158 -34 235 -50 77
-17 191 -37 254 -45 62 -8 116 -18 120 -22 14 -15 -406 5 -525 25 -435 74
-852 258 -1175 519 -113 91 -281 271 -350 375 -64 96 -71 86 -14 -18 127 -229
371 -466 657 -637 250 -150 598 -274 898 -322 324 -52 609 -37 870 46 52 17
138 41 190 53 52 12 104 26 115 30 74 29 -188 -155 -326 -229 -174 -93 -471
-188 -679 -217 -115 -15 -324 -16 -440 0 -123 16 -355 81 -469 130 -96 42
-232 120 -319 184 -73 53 -55 24 63 -101 175 -185 410 -363 611 -462 46 -23
84 -44 84 -46 0 -1 -24 5 -52 15 -255 89 -581 274 -704 398 -162 165 -354 450
-418 620 -8 21 -30 81 -50 133 -84 223 -148 505 -181 795 -15 131 -33 545 -23
545 3 0 19 -5 37 -11z m-450 -231 c0 -281 38 -509 132 -804 17 -55 36 -103 41
-109 7 -7 8 -3 4 10 -29 98 -42 403 -27 605 19 243 22 247 53 89 36 -181 72
-299 117 -389 57 -111 135 -318 176 -465 130 -462 376 -819 739 -1074 33 -22
55 -41 50 -41 -20 0 -242 89 -324 129 -46 23 -125 75 -175 116 -92 75 -309
288 -366 360 -35 43 -169 313 -225 453 -132 328 -228 863 -209 1165 4 59 9
107 10 107 2 0 4 -69 4 -152z m935 130 c2 -13 16 -85 30 -160 59 -313 181
-594 366 -840 84 -111 210 -241 305 -313 90 -67 118 -99 55 -62 -125 73 -297
236 -407 384 -196 265 -323 575 -377 926 -13 83 -12 87 5 87 11 0 20 -9 23
-22z m21330 -358 c8 -41 20 -134 27 -206 11 -122 10 -137 -11 -235 -38 -179
-138 -448 -211 -565 l-21 -34 -43 54 -44 53 28 74 c16 41 45 111 64 156 82
189 155 491 172 712 9 104 16 102 39 -9z m-14033 18 c33 -40 19 -118 -21 -118
-10 0 -22 -4 -25 -10 -13 -21 -46 -9 -65 22 -24 39 -19 63 21 101 36 33 65 34
90 5z m12931 -295 c217 -126 412 -277 604 -468 236 -235 419 -481 558 -748 95
-183 83 -198 -21 -28 -129 209 -193 290 -348 447 -223 225 -412 363 -660 485
-77 38 -147 69 -156 69 -19 0 -23 15 -39 165 -11 102 -12 115 -6 115 3 0 33
-16 68 -37z m-256 -609 c72 -100 123 -236 150 -395 47 -281 -30 -614 -198
-862 -40 -59 -148 -170 -183 -189 -11 -6 -5 4 14 23 34 35 112 150 168 249 85
149 144 332 165 506 27 233 -37 495 -173 713 -36 57 -38 63 -14 41 15 -14 47
-52 71 -86z m-16101 -244 c-12 -19 -88 -136 -169 -260 -147 -224 -148 -225
-189 -232 -23 -4 -57 -10 -74 -13 -43 -8 -40 -1 57 145 91 136 212 325 229
358 16 30 44 40 112 38 l56 -1 -22 -35z m12791 1 c-10 -11 -14 -25 -10 -36 6
-14 4 -17 -8 -12 -19 7 -47 -22 -40 -42 3 -10 0 -12 -11 -8 -8 3 -24 -4 -37
-18 -15 -16 -18 -24 -9 -27 8 -3 9 -9 4 -18 -7 -11 -10 -10 -15 4 -5 14 -9 12
-29 -14 -21 -29 -21 -31 -3 -21 29 16 34 14 27 -9 -5 -15 -3 -18 9 -14 9 3 16
11 16 18 0 6 10 12 22 13 11 1 25 8 29 15 4 7 11 10 14 6 10 -10 -98 -79 -212
-136 -56 -28 -114 -58 -130 -67 -27 -17 -27 -16 2 6 117 92 281 257 360 363
16 21 31 33 33 27 2 -7 -3 -20 -12 -30z m-286 -40 c0 -14 -136 -218 -197 -293
-30 -38 -58 -66 -63 -63 -6 3 -8 0 -5 -7 4 -12 -144 -145 -228 -205 -20 -14
-36 -28 -34 -30 7 -6 156 66 198 96 23 17 46 31 51 31 6 0 46 16 90 35 44 20
83 34 85 31 3 -2 -5 -7 -17 -11 -15 -5 -20 -13 -17 -25 3 -11 2 -20 -2 -22
-12 -6 -42 -68 -37 -77 3 -5 -3 -11 -14 -14 -24 -6 -26 6 -6 26 8 8 17 27 19
42 2 14 10 31 18 36 8 5 9 9 2 9 -22 0 -42 -12 -39 -23 1 -7 1 -9 -1 -4 -7 11
-23 8 -39 -8 -14 -14 -11 -19 9 -16 12 2 8 -44 -5 -57 -9 -9 -7 -16 10 -30 16
-14 18 -22 10 -30 -9 -9 -9 -12 0 -12 7 0 12 -7 12 -16 0 -11 -6 -14 -22 -9
-21 7 -22 6 -5 -7 17 -13 16 -14 -7 -16 -14 -1 -26 3 -26 8 0 5 -10 14 -22 21
-18 9 -20 9 -15 -4 8 -21 -3 -29 -22 -15 -9 7 -8 3 4 -10 12 -15 26 -21 39
-18 12 3 15 1 9 -5 -28 -28 -505 -163 -615 -174 -36 -4 -85 -25 -201 -89 -319
-178 -628 -297 -957 -370 -24 -5 -27 0 -59 87 -18 51 -36 98 -38 105 -4 9 10
12 49 12 107 0 402 88 638 189 181 78 587 317 753 443 43 33 82 56 89 52 7 -4
8 -3 4 4 -4 6 14 30 40 54 48 44 93 58 95 29 0 -10 2 -12 6 -3 2 6 9 10 14 6
5 -3 9 -1 9 4 0 6 -11 13 -25 16 -14 4 -25 10 -25 14 0 4 23 30 52 57 35 34
43 39 24 16 -25 -31 -26 -36 -12 -47 9 -6 16 -16 16 -23 0 -7 9 -9 25 -5 18 4
27 1 31 -11 4 -9 1 -20 -6 -25 -7 -4 -8 -10 -3 -13 5 -3 18 8 28 26 l19 32 7
-30 c5 -24 7 -25 8 -7 0 12 -6 34 -15 47 -21 33 -14 31 27 -5 19 -16 37 -30
41 -30 4 0 22 19 41 43 26 31 34 50 32 72 -2 16 2 33 8 37 9 6 9 8 -1 8 -7 0
-10 5 -7 10 4 6 11 8 16 5 13 -9 11 -49 -3 -63 -7 -7 -9 -12 -6 -12 6 0 68 87
68 95 0 2 -7 11 -16 20 -15 15 -14 15 10 9 19 -5 27 -2 33 12 3 9 15 26 25 36
10 10 23 30 28 43 9 25 20 33 20 16z m432 -83 c-52 -51 -70 -74 -62 -82 8 -8
13 -7 20 4 11 18 25 6 16 -15 -3 -9 -13 -15 -22 -13 -9 2 -19 -3 -21 -9 -3 -8
4 -13 15 -13 12 0 27 -7 36 -15 17 -17 30 -20 21 -5 -8 12 -3 13 30 0 24 -9
25 -9 14 13 -10 19 -10 20 2 11 8 -6 22 -10 31 -9 10 2 20 -1 24 -6 3 -5 10
-7 15 -3 6 3 5 12 -3 22 -11 13 -10 15 5 9 12 -5 17 -1 17 13 0 12 7 20 18 20
21 0 44 -14 42 -26 -1 -4 6 -11 15 -14 9 -3 16 -10 16 -15 0 -6 7 -9 16 -7 14
3 14 2 -1 -13 -22 -22 -20 -28 5 -14 13 7 19 7 15 1 -3 -6 -2 -13 4 -17 5 -3
10 -1 10 4 0 6 4 10 9 8 15 -4 139 83 214 151 52 48 60 53 27 18 -107 -114
-293 -235 -545 -357 -213 -102 -550 -238 -562 -225 -2 1 23 13 54 25 32 12 66
32 76 44 12 16 15 17 11 5 -8 -23 -7 -23 68 9 58 24 108 55 66 40 -11 -4 -18
-1 -18 6 0 8 -3 8 -9 -2 -5 -7 -15 -11 -22 -9 -8 3 -22 -5 -32 -16 -18 -20
-18 -20 -1 7 16 27 16 28 -4 34 -26 6 -36 31 -21 49 9 12 15 12 28 2 14 -11
14 -11 3 3 -10 14 -10 18 4 23 9 4 14 9 11 13 -4 3 -13 0 -22 -7 -12 -10 -15
-10 -15 3 0 25 -17 29 -44 12 l-25 -17 12 31 c6 17 16 27 21 23 18 -11 46 -12
46 -2 0 6 -3 10 -7 11 -5 0 -20 2 -35 4 -15 2 -30 -1 -33 -6 -4 -5 -14 -9 -23
-9 -9 1 42 31 113 68 72 37 150 80 175 96 25 16 50 29 57 29 7 0 10 3 8 7 -2
4 24 27 58 53 34 25 80 64 102 86 21 23 42 41 45 41 3 0 -28 -32 -68 -72z
m3486 -5 c116 -171 233 -408 302 -612 166 -490 139 -1005 -62 -1186 -99 -89
-322 -181 -544 -225 -101 -20 -414 -41 -414 -28 0 3 33 14 73 23 275 66 563
331 727 670 73 151 93 207 109 299 14 75 14 259 1 351 -24 163 -160 610 -225
734 -25 49 -9 36 33 -26z m-17456 -49 c5 -12 19 -20 31 -20 17 1 21 -4 19 -19
-3 -16 -1 -18 9 -7 7 6 18 12 24 12 5 0 3 -5 -5 -10 -12 -8 -13 -12 -2 -19 8
-4 13 -11 13 -15 -3 -20 2 -24 34 -30 19 -4 35 -11 35 -16 0 -6 -4 -10 -9 -10
-16 0 -20 -28 -5 -34 8 -3 12 -2 9 3 -3 5 5 17 17 26 21 14 24 14 35 -1 8 -11
21 -15 37 -12 14 3 23 1 20 -3 -3 -5 2 -9 10 -9 9 0 16 -4 16 -10 0 -5 5 -10
10 -10 7 0 7 6 0 20 -24 45 1 15 40 -47 196 -313 466 -558 722 -653 189 -70
437 -116 741 -136 54 -3 97 -8 95 -10 -12 -11 -350 -98 -448 -114 -265 -45
-518 -6 -764 119 -350 179 -580 507 -697 994 -20 81 -24 128 -7 67 6 -19 14
-44 20 -56z m-3041 -399 c200 -192 543 -369 864 -445 222 -52 623 -96 790 -87
374 21 553 45 727 100 62 20 183 55 268 77 85 23 189 55 229 71 41 15 76 27
78 25 5 -4 -313 -209 -427 -274 -211 -121 -416 -201 -635 -248 -72 -16 -91
-22 -55 -18 30 2 104 17 164 31 105 24 119 25 290 19 101 -3 241 -2 316 4 74
6 215 15 313 20 98 5 197 15 220 20 83 22 83 22 66 11 -31 -20 -248 -59 -544
-98 -208 -27 -1231 -26 -1405 1 -52 8 -286 78 -369 110 -184 71 -396 189 -601
336 -165 118 -229 176 -287 262 -64 95 -107 168 -97 168 4 0 47 -38 95 -85z
m9734 -160 c-7 -44 -18 -163 -24 -265 -18 -291 -23 -323 -101 -645 -16 -66
-31 -133 -33 -150 -9 -66 -6 86 3 165 5 47 14 146 20 220 11 149 43 384 66
500 17 81 73 264 79 258 2 -2 -2 -40 -10 -83z m10764 -71 c38 -136 59 -249 67
-369 9 -131 -14 -239 -104 -473 -12 -29 -46 -85 -78 -123 -59 -72 -234 -243
-241 -235 -2 2 11 28 30 57 74 116 131 261 173 438 13 58 36 142 50 186 41
129 65 294 66 445 0 74 -3 151 -7 170 -5 23 -4 32 3 25 5 -5 24 -60 41 -121z
m753 -105 c158 -265 180 -327 214 -589 20 -162 14 -463 -12 -564 -53 -206
-272 -648 -381 -771 -38 -43 -36 -37 12 40 107 169 186 427 221 720 19 167 19
690 -1 823 -20 137 -58 276 -104 383 -49 112 -32 99 51 -42z m-11948 -121 c-3
-112 -7 -213 -9 -224 -4 -16 -15 -23 -45 -28 -23 -3 -46 -3 -52 0 -11 7 -5
290 9 396 6 50 12 55 71 57 l32 1 -6 -202z m2493 -266 c2 -48 8 -177 14 -287
13 -224 9 -282 -10 -130 -7 55 -21 137 -32 183 -21 93 -25 215 -8 292 16 76
33 49 36 -58z m224 -189 c197 -311 251 -402 247 -415 -11 -32 -381 544 -401
622 -5 24 -4 23 21 -7 15 -17 75 -107 133 -200z m-5501 -497 c0 -6 -11 -21
-24 -35 l-25 -26 22 -50 c12 -28 34 -72 50 -97 33 -56 33 -58 4 -58 -38 0 -90
35 -124 85 -28 40 -32 53 -27 89 15 112 27 149 52 173 25 23 26 26 9 38 -13 9
-15 14 -5 17 11 4 68 -109 68 -136z m38 9 c16 -38 39 -99 50 -135 18 -58 19
-68 6 -92 -8 -16 -18 -28 -23 -28 -11 0 -91 153 -91 173 0 9 11 28 23 43 l24
27 -19 51 c-27 72 -7 45 30 -39z m-716 -77 l-27 -87 -135 -57 c-74 -31 -204
-85 -288 -121 -85 -35 -156 -62 -159 -59 -3 2 4 30 16 61 12 31 21 63 21 73 0
13 33 30 128 66 157 60 432 183 451 202 8 7 16 12 17 11 2 -1 -9 -42 -24 -89z
m9258 -1 c80 -35 207 -88 282 -118 l137 -54 23 -70 c12 -38 24 -76 26 -83 3
-9 -4 -9 -30 2 -18 9 -98 43 -178 77 -141 60 -298 128 -351 151 -21 9 -31 27
-49 82 -12 39 -25 78 -28 86 -5 12 -3 13 9 3 8 -6 79 -40 159 -76z m5313 -104
c-168 -192 -438 -383 -668 -472 -113 -44 -313 -100 -333 -93 -7 2 10 15 38 28
142 66 332 227 537 455 50 56 50 56 121 63 76 8 240 45 307 70 22 8 44 15 48
15 5 1 -18 -29 -50 -66z m-14001 -168 l37 -42 -20 -54 c-12 -30 -31 -94 -44
-144 l-23 -89 -11 54 c-19 98 -31 222 -31 325 l1 100 27 -54 c14 -29 43 -72
64 -96z"/>
<path d="M12220 11343 c-52 -12 -114 -22 -137 -22 -24 -1 -43 -4 -43 -8 0 -5
49 -8 110 -8 60 0 102 3 92 6 -14 6 -15 8 -2 12 62 22 92 26 150 19 36 -4 94
-3 130 2 106 15 219 -7 145 -28 -20 -5 43 -2 173 10 40 4 71 8 69 10 -10 10
-264 27 -417 28 -146 1 -191 -3 -270 -21z"/>
<path d="M10781 11002 c52 -179 48 -172 79 -172 27 0 28 1 20 35 l-8 35 29
-17 c16 -9 43 -30 61 -45 18 -15 34 -26 36 -24 1 2 -6 20 -17 40 l-21 36 38 0
c33 1 35 2 19 14 -10 8 -26 12 -36 9 -12 -3 -27 7 -45 31 -24 32 -88 80 -153
114 l-21 12 19 -68z"/>
<path d="M10255 1103 c-16 -2 -113 -13 -215 -24 -344 -37 -841 -103 -975 -129
-27 -6 -144 -26 -260 -45 -115 -20 -228 -40 -250 -45 -22 -5 -123 -26 -225
-45 -870 -169 -1738 -429 -2385 -717 l-210 -93 222 -3 223 -2 192 76 c481 191
1036 360 1676 508 209 49 327 73 622 131 283 56 746 127 1169 180 212 27 290
41 306 53 73 58 177 162 159 161 -10 -1 -32 -4 -49 -6z"/>
<path d="M10196 597 c-10 -8 -29 -12 -43 -9 -28 5 -304 -28 -316 -38 -10 -8
120 -150 138 -150 16 0 108 81 100 88 -7 7 75 92 89 92 6 0 -12 -20 -39 -45
-28 -24 -45 -44 -40 -44 10 0 144 118 134 119 -3 0 -13 -6 -23 -13z"/>
<path d="M9470 504 c-113 -18 -217 -35 -232 -36 -22 -2 -25 -5 -17 -19 24 -46
-15 -99 -72 -99 -34 0 -70 41 -62 71 5 19 3 21 -23 15 -16 -4 -90 -17 -164
-31 -406 -74 -891 -187 -1250 -291 -107 -31 -212 -61 -232 -66 -21 -6 -38 -14
-38 -18 0 -24 67 -31 305 -28 l250 3 260 67 c267 69 581 141 670 153 28 4 66
11 85 15 19 5 115 23 212 39 169 29 182 33 260 77 135 77 292 187 261 183 -4
-1 -100 -16 -213 -35z"/>
<path d="M9828 295 c-3 -3 -81 -17 -174 -30 -267 -39 -660 -109 -889 -158
-296 -64 -449 -99 -454 -103 -2 -2 198 -4 444 -4 l449 0 -42 31 c-23 17 -42
31 -42 32 0 1 44 2 98 3 158 2 321 51 508 155 111 62 137 79 118 79 -6 0 -13
-2 -16 -5z"/>
<path d="M19185 260 c-55 -22 -108 -39 -117 -39 -39 -2 -13 -18 80 -49 53 -19
179 -65 279 -103 124 -48 193 -69 215 -67 28 3 23 6 -39 22 -40 11 -70 22 -68
25 9 8 158 71 169 71 6 0 3 -5 -7 -11 -18 -10 -18 -11 0 -25 23 -17 37 -18 26
-2 -4 8 3 7 17 -3 26 -17 55 -15 44 3 -5 7 3 9 22 4 60 -13 -128 70 -319 140
-109 41 -199 74 -200 73 -1 -1 -47 -18 -102 -39z"/>
</g>
</svg>
